<?xml version="1.0" standalone="no"?>
<!DOCTYPE svg PUBLIC "-//W3C//DTD SVG 20010904//EN"
 "http://www.w3.org/TR/2001/REC-SVG-20010904/DTD/svg10.dtd">
<svg version="1.0" xmlns="http://www.w3.org/2000/svg"
 width="900.000000pt" height="900.000000pt" viewBox="0 0 900.000000 900.000000"
 preserveAspectRatio="xMidYMid meet">
<g transform="translate(0.000000,900.000000) scale(0.100000,-0.100000)"
fill="#000000" stroke="none">
<path d="M4422 7618 c-45 -90 -133 -262 -196 -383 -62 -121 -177 -346 -256
-500 -79 -154 -181 -355 -228 -446 l-85 -166 -105 121 c-57 67 -126 146 -152
176 -26 30 -63 73 -81 95 -19 22 -37 42 -40 45 -3 3 -35 39 -70 80 -70 82
-109 127 -124 144 -6 6 -80 92 -165 191 -85 99 -167 193 -181 210 -32 37 -171
197 -248 285 -31 35 -70 80 -87 99 l-31 34 3 -814 c2 -448 6 -1336 8 -1974 3
-638 5 -1237 6 -1331 l0 -170 73 -85 c93 -108 120 -139 132 -153 6 -6 35 -40
65 -76 30 -36 57 -67 60 -70 3 -3 34 -39 70 -80 36 -41 77 -88 91 -105 51 -58
291 -335 388 -449 23 -27 48 -54 54 -61 7 -7 32 -36 57 -66 147 -173 457 -529
462 -529 2 0 2 230 0 512 -2 282 -1 510 2 508 6 -7 41 -71 88 -160 22 -41 44
-82 49 -90 5 -8 42 -76 82 -150 327 -606 522 -958 528 -952 3 4 77 147 164
317 87 171 193 378 235 460 179 347 544 1061 667 1303 l88 174 5 -119 5 -118
100 -125 c54 -69 189 -237 298 -375 110 -137 205 -256 211 -262 9 -10 11 100
10 440 -1 248 -3 902 -4 1452 l-3 1000 -36 45 c-19 25 -40 50 -46 57 -13 16
-19 23 -90 113 -33 41 -65 82 -72 90 -7 8 -40 51 -75 95 -34 44 -65 82 -68 85
-3 3 -56 69 -119 148 -62 78 -114 142 -115 142 -1 0 -1 -162 -1 -360 0 -198
-2 -356 -6 -352 -3 4 -81 147 -174 317 -92 171 -180 333 -195 360 -15 28 -47
86 -70 130 -23 44 -46 85 -50 90 -4 6 -33 60 -65 120 -32 61 -67 126 -78 145
-31 54 -90 163 -182 335 -27 50 -61 112 -77 138 -15 26 -28 50 -28 53 0 2 -20
39 -44 82 -24 42 -62 113 -86 157 -59 112 -182 335 -184 335 0 0 -38 -73 -84
-162z"/>
</g>
</svg>
